<svg xmlns="http://www.w3.org/2000/svg" viewBox="0 0 1200 800" width="1200" height="800" role="img" aria-label="POST">
<defs>
<filter id="soft" x="-30%" y="-30%" width="160%" height="160%"><feGaussianBlur stdDeviation="13"/></filter>
<filter id="fine" x="-20%" y="-20%" width="140%" height="140%"><feGaussianBlur stdDeviation="1.7"/></filter>
<radialGradient id="vig" cx="50%" cy="45%" r="75%"><stop offset="55%" stop-color="#000" stop-opacity="0"/><stop offset="100%" stop-color="#000" stop-opacity="0.75"/></radialGradient>
</defs>
<rect width="1200" height="800" fill="#080b0b"/>
<g filter="url(#soft)" opacity="0.85">
<circle cx="174" cy="392" r="241" fill="#92da4e" opacity="0.26"/>
<circle cx="816" cy="125" r="339" fill="#5fa116" opacity="0.19"/>
<circle cx="1007" cy="158" r="254" fill="#92da4e" opacity="0.12"/>
<circle cx="102" cy="261" r="204" fill="#5fa116" opacity="0.12"/>
<circle cx="1163" cy="670" r="178" fill="#adf767" opacity="0.16"/>
<circle cx="647" cy="448" r="292" fill="#5fa116" opacity="0.18"/>
<circle cx="348" cy="314" r="352" fill="#5fa116" opacity="0.11"/>
<circle cx="359" cy="771" r="351" fill="#5fa116" opacity="0.11"/>
<circle cx="967" cy="285" r="283" fill="#adf767" opacity="0.30"/>
</g>
<g filter="url(#fine)" fill="none" stroke-linecap="round">
<path d="M1136,270 L1198,348 L1203,514 L1161,656 L1089,753 L1016,761 L911,790" stroke="#5fa116" stroke-width="0.9" opacity="0.40"/>
<path d="M808,655 L672,723 L549,754 L381,842 L233,830 L146,898" stroke="#adf767" stroke-width="1.3" opacity="0.33"/>
<path d="M817,401 L813,305 L757,229 L735,143 L766,-34 L686,-163" stroke="#adf767" stroke-width="2.1" opacity="0.40"/>
<path d="M585,516 L410,558 L304,525 L209,498 L46,533 L-3,605" stroke="#5fa116" stroke-width="1.4" opacity="0.51"/>
<path d="M742,550 L762,447 L921,361 L1000,305 L1116,182" stroke="#92da4e" stroke-width="1.4" opacity="0.26"/>
<path d="M1091,358 L1114,202 L1256,78 L1438,76" stroke="#adf767" stroke-width="2.3" opacity="0.46"/>
<path d="M1052,52 L978,189 L1011,278 L1072,456 L1223,549 L1356,635 L1423,678" stroke="#92da4e" stroke-width="1.1" opacity="0.61"/>
<path d="M351,691 L272,656 L84,633 L13,631" stroke="#92da4e" stroke-width="1.8" opacity="0.47"/>
<path d="M1104,733 L1038,673 L1038,585 L1109,447" stroke="#5fa116" stroke-width="2.1" opacity="0.26"/>
<path d="M327,63 L416,-95 L389,-172 L322,-261 L286,-319 L159,-394" stroke="#92da4e" stroke-width="1.6" opacity="0.55"/>
<path d="M815,364 L844,432 L791,533 L757,592 L637,632" stroke="#adf767" stroke-width="2.3" opacity="0.45"/>
<path d="M61,30 L-89,122 L-186,94 L-257,3" stroke="#adf767" stroke-width="1.8" opacity="0.55"/>
<path d="M850,166 L764,228 L654,270 L598,311 L411,284" stroke="#5fa116" stroke-width="2.3" opacity="0.59"/>
<path d="M621,71 L508,26 L387,27 L238,142 L140,260" stroke="#adf767" stroke-width="2.3" opacity="0.67"/>
<path d="M255,1 L212,-149 L291,-271 L279,-403 L224,-452 L198,-581 L143,-625" stroke="#adf767" stroke-width="1.4" opacity="0.27"/>
<path d="M871,504 L943,464 L1012,370 L1150,332 L1271,421" stroke="#92da4e" stroke-width="1.4" opacity="0.51"/>
<path d="M1083,102 L1032,246 L974,359 L856,485 L868,657" stroke="#92da4e" stroke-width="1.7" opacity="0.68"/>
<path d="M752,520 L630,383 L638,252 L727,154 L821,60 L891,-61" stroke="#92da4e" stroke-width="1.3" opacity="0.55"/>
<path d="M993,606 L1103,668 L1157,817 L1239,941 L1260,1015 L1237,1158" stroke="#adf767" stroke-width="1.0" opacity="0.42"/>
<path d="M192,479 L114,484 L11,445 L-53,393 L-58,275 L-53,122 L-16,-57" stroke="#92da4e" stroke-width="2.0" opacity="0.39"/>
<path d="M1053,425 L1191,471 L1268,438 L1319,357 L1484,287 L1633,224 L1771,244" stroke="#5fa116" stroke-width="1.8" opacity="0.47"/>
<path d="M770,357 L787,442 L856,564 L998,684 L1015,764 L986,837" stroke="#5fa116" stroke-width="1.9" opacity="0.67"/>
<path d="M419,353 L519,403 L584,495 L553,612 L607,765 L595,915" stroke="#adf767" stroke-width="2.2" opacity="0.40"/>
<path d="M199,144 L312,182 L388,204 L544,210 L685,175 L743,67 L791,-116" stroke="#92da4e" stroke-width="1.0" opacity="0.53"/>
<path d="M1045,256 L998,197 L848,196 L709,285" stroke="#92da4e" stroke-width="1.1" opacity="0.25"/>
<path d="M550,693 L544,547 L564,385 L488,299 L473,213 L481,50" stroke="#92da4e" stroke-width="1.4" opacity="0.35"/>
</g>
<g filter="url(#fine)">
<ellipse cx="322" cy="484" rx="40" ry="43" fill="#92da4e" opacity="0.51"/>
<ellipse cx="322" cy="484" rx="18" ry="18" fill="#ffffff" opacity="0.23"/>
<ellipse cx="827" cy="249" rx="40" ry="48" fill="#92da4e" opacity="0.57"/>
<ellipse cx="827" cy="249" rx="18" ry="18" fill="#ffffff" opacity="0.30"/>
<ellipse cx="1045" cy="692" rx="33" ry="31" fill="#92da4e" opacity="0.46"/>
<ellipse cx="1045" cy="692" rx="15" ry="15" fill="#ffffff" opacity="0.20"/>
<ellipse cx="697" cy="740" rx="35" ry="30" fill="#92da4e" opacity="0.58"/>
<ellipse cx="697" cy="740" rx="16" ry="16" fill="#ffffff" opacity="0.20"/>
<ellipse cx="802" cy="240" rx="34" ry="40" fill="#92da4e" opacity="0.48"/>
<ellipse cx="802" cy="240" rx="15" ry="15" fill="#ffffff" opacity="0.13"/>
<ellipse cx="953" cy="392" rx="25" ry="27" fill="#92da4e" opacity="0.38"/>
<ellipse cx="953" cy="392" rx="11" ry="11" fill="#ffffff" opacity="0.27"/>
<ellipse cx="1053" cy="395" rx="17" ry="14" fill="#92da4e" opacity="0.49"/>
<ellipse cx="1053" cy="395" rx="8" ry="8" fill="#ffffff" opacity="0.25"/>
<ellipse cx="879" cy="396" rx="29" ry="31" fill="#92da4e" opacity="0.32"/>
<ellipse cx="879" cy="396" rx="13" ry="13" fill="#ffffff" opacity="0.17"/>
<ellipse cx="354" cy="459" rx="22" ry="23" fill="#92da4e" opacity="0.42"/>
<ellipse cx="354" cy="459" rx="10" ry="10" fill="#ffffff" opacity="0.20"/>
<ellipse cx="961" cy="502" rx="20" ry="19" fill="#92da4e" opacity="0.34"/>
<ellipse cx="961" cy="502" rx="9" ry="9" fill="#ffffff" opacity="0.21"/>
<ellipse cx="776" cy="468" rx="15" ry="16" fill="#92da4e" opacity="0.59"/>
<ellipse cx="776" cy="468" rx="7" ry="7" fill="#ffffff" opacity="0.10"/>
<ellipse cx="106" cy="253" rx="20" ry="24" fill="#92da4e" opacity="0.33"/>
<ellipse cx="106" cy="253" rx="9" ry="9" fill="#ffffff" opacity="0.24"/>
<ellipse cx="852" cy="388" rx="16" ry="19" fill="#92da4e" opacity="0.38"/>
<ellipse cx="852" cy="388" rx="7" ry="7" fill="#ffffff" opacity="0.22"/>
<ellipse cx="382" cy="133" rx="38" ry="35" fill="#92da4e" opacity="0.63"/>
<ellipse cx="382" cy="133" rx="17" ry="17" fill="#ffffff" opacity="0.23"/>
</g>
<circle cx="32" cy="268" r="1.3" fill="#5fa116" opacity="0.34"/>
<circle cx="466" cy="266" r="0.7" fill="#5fa116" opacity="0.50"/>
<circle cx="677" cy="497" r="0.8" fill="#92da4e" opacity="0.42"/>
<circle cx="806" cy="721" r="2.0" fill="#92da4e" opacity="0.31"/>
<circle cx="493" cy="586" r="1.3" fill="#5fa116" opacity="0.27"/>
<circle cx="881" cy="724" r="1.3" fill="#92da4e" opacity="0.23"/>
<circle cx="502" cy="737" r="1.6" fill="#92da4e" opacity="0.36"/>
<circle cx="1120" cy="4" r="1.0" fill="#5fa116" opacity="0.43"/>
<circle cx="533" cy="577" r="1.7" fill="#5fa116" opacity="0.50"/>
<circle cx="216" cy="246" r="0.9" fill="#adf767" opacity="0.59"/>
<circle cx="490" cy="254" r="1.9" fill="#5fa116" opacity="0.31"/>
<circle cx="474" cy="33" r="1.7" fill="#adf767" opacity="0.37"/>
<circle cx="790" cy="315" r="1.0" fill="#adf767" opacity="0.25"/>
<circle cx="1132" cy="606" r="1.3" fill="#adf767" opacity="0.24"/>
<circle cx="177" cy="790" r="1.2" fill="#92da4e" opacity="0.41"/>
<circle cx="1072" cy="70" r="1.2" fill="#adf767" opacity="0.48"/>
<circle cx="986" cy="535" r="1.5" fill="#92da4e" opacity="0.48"/>
<circle cx="165" cy="331" r="1.7" fill="#adf767" opacity="0.26"/>
<circle cx="515" cy="569" r="1.3" fill="#5fa116" opacity="0.53"/>
<circle cx="63" cy="158" r="0.7" fill="#92da4e" opacity="0.25"/>
<circle cx="634" cy="737" r="0.7" fill="#92da4e" opacity="0.55"/>
<circle cx="296" cy="131" r="0.9" fill="#92da4e" opacity="0.22"/>
<circle cx="185" cy="389" r="1.8" fill="#92da4e" opacity="0.58"/>
<circle cx="286" cy="274" r="1.5" fill="#5fa116" opacity="0.27"/>
<circle cx="357" cy="234" r="1.6" fill="#5fa116" opacity="0.41"/>
<circle cx="795" cy="725" r="1.1" fill="#adf767" opacity="0.39"/>
<circle cx="187" cy="138" r="1.3" fill="#adf767" opacity="0.47"/>
<circle cx="756" cy="572" r="1.0" fill="#5fa116" opacity="0.51"/>
<circle cx="72" cy="201" r="0.9" fill="#5fa116" opacity="0.58"/>
<circle cx="953" cy="78" r="1.6" fill="#92da4e" opacity="0.55"/>
<circle cx="516" cy="559" r="1.1" fill="#92da4e" opacity="0.53"/>
<circle cx="295" cy="279" r="0.9" fill="#5fa116" opacity="0.49"/>
<circle cx="1151" cy="351" r="1.9" fill="#adf767" opacity="0.25"/>
<circle cx="122" cy="475" r="1.8" fill="#92da4e" opacity="0.53"/>
<circle cx="102" cy="360" r="1.5" fill="#5fa116" opacity="0.48"/>
<circle cx="1127" cy="440" r="0.9" fill="#92da4e" opacity="0.21"/>
<circle cx="7" cy="217" r="1.2" fill="#5fa116" opacity="0.49"/>
<circle cx="51" cy="5" r="1.0" fill="#5fa116" opacity="0.42"/>
<circle cx="1112" cy="598" r="0.8" fill="#adf767" opacity="0.21"/>
<circle cx="261" cy="381" r="1.7" fill="#92da4e" opacity="0.54"/>
<circle cx="1055" cy="233" r="0.8" fill="#adf767" opacity="0.41"/>
<circle cx="875" cy="233" r="1.8" fill="#5fa116" opacity="0.48"/>
<circle cx="499" cy="180" r="1.9" fill="#92da4e" opacity="0.33"/>
<circle cx="161" cy="620" r="1.6" fill="#adf767" opacity="0.27"/>
<circle cx="319" cy="290" r="0.8" fill="#adf767" opacity="0.28"/>
<circle cx="517" cy="69" r="2.0" fill="#5fa116" opacity="0.56"/>
<circle cx="1106" cy="39" r="1.8" fill="#adf767" opacity="0.31"/>
<circle cx="1178" cy="756" r="1.8" fill="#5fa116" opacity="0.21"/>
<circle cx="1128" cy="298" r="0.8" fill="#5fa116" opacity="0.39"/>
<circle cx="305" cy="212" r="1.1" fill="#5fa116" opacity="0.36"/>
<circle cx="899" cy="359" r="1.5" fill="#adf767" opacity="0.45"/>
<circle cx="660" cy="128" r="0.8" fill="#92da4e" opacity="0.32"/>
<circle cx="17" cy="454" r="0.6" fill="#92da4e" opacity="0.48"/>
<circle cx="849" cy="148" r="1.0" fill="#5fa116" opacity="0.30"/>
<circle cx="335" cy="186" r="1.0" fill="#92da4e" opacity="0.23"/>
<circle cx="671" cy="629" r="1.3" fill="#92da4e" opacity="0.42"/>
<circle cx="1196" cy="799" r="1.1" fill="#5fa116" opacity="0.24"/>
<circle cx="107" cy="58" r="1.5" fill="#adf767" opacity="0.54"/>
<circle cx="152" cy="765" r="1.6" fill="#5fa116" opacity="0.23"/>
<circle cx="374" cy="213" r="1.0" fill="#adf767" opacity="0.52"/>
<circle cx="910" cy="726" r="0.8" fill="#adf767" opacity="0.29"/>
<circle cx="322" cy="220" r="1.6" fill="#5fa116" opacity="0.30"/>
<circle cx="669" cy="156" r="0.7" fill="#adf767" opacity="0.25"/>
<circle cx="673" cy="116" r="0.6" fill="#92da4e" opacity="0.21"/>
<circle cx="534" cy="61" r="1.8" fill="#5fa116" opacity="0.31"/>
<circle cx="1082" cy="576" r="1.7" fill="#adf767" opacity="0.49"/>
<circle cx="841" cy="90" r="1.3" fill="#5fa116" opacity="0.38"/>
<circle cx="217" cy="538" r="1.0" fill="#5fa116" opacity="0.29"/>
<circle cx="1155" cy="198" r="1.7" fill="#adf767" opacity="0.24"/>
<circle cx="337" cy="215" r="1.9" fill="#5fa116" opacity="0.43"/>
<circle cx="257" cy="423" r="1.0" fill="#adf767" opacity="0.50"/>
<circle cx="648" cy="402" r="1.6" fill="#adf767" opacity="0.40"/>
<circle cx="113" cy="303" r="1.2" fill="#5fa116" opacity="0.46"/>
<circle cx="914" cy="505" r="1.2" fill="#92da4e" opacity="0.47"/>
<circle cx="100" cy="753" r="0.7" fill="#5fa116" opacity="0.37"/>
<circle cx="1115" cy="766" r="1.1" fill="#adf767" opacity="0.52"/>
<circle cx="138" cy="426" r="0.8" fill="#5fa116" opacity="0.33"/>
<circle cx="1111" cy="44" r="1.4" fill="#adf767" opacity="0.22"/>
<circle cx="150" cy="238" r="1.2" fill="#adf767" opacity="0.41"/>
<circle cx="97" cy="576" r="1.6" fill="#5fa116" opacity="0.43"/>
<circle cx="320" cy="670" r="1.8" fill="#adf767" opacity="0.42"/>
<circle cx="219" cy="276" r="1.7" fill="#adf767" opacity="0.34"/>
<circle cx="311" cy="558" r="1.7" fill="#92da4e" opacity="0.41"/>
<circle cx="60" cy="678" r="1.2" fill="#92da4e" opacity="0.59"/>
<circle cx="192" cy="106" r="2.0" fill="#adf767" opacity="0.48"/>
<circle cx="882" cy="165" r="1.7" fill="#92da4e" opacity="0.58"/>
<circle cx="784" cy="461" r="0.7" fill="#92da4e" opacity="0.31"/>
<circle cx="1066" cy="254" r="1.8" fill="#adf767" opacity="0.31"/>
<circle cx="342" cy="125" r="1.8" fill="#92da4e" opacity="0.28"/>
<circle cx="444" cy="408" r="0.6" fill="#adf767" opacity="0.32"/>
<rect width="1200" height="800" fill="url(#vig)"/>
<rect x="1002" y="740" width="144" height="6" fill="#e5e2e1" opacity="0.85"/>
<text x="1002" y="724" font-family="Inter, sans-serif" font-size="19" letter-spacing="1.9" fill="#e5e2e1" opacity="0.8">20 µm</text>
<text x="54" y="72" font-family="Inter, sans-serif" font-size="19" letter-spacing="1.9" fill="#e5e2e1" opacity="0.55">POST</text>
</svg>